<svg width="92" height="34" viewBox="0 0 92 34" fill="none" xmlns="http://www.w3.org/2000/svg">
<path d="M7.728 6.16H0.48V0.399998H21.504V6.16H14.256V34H7.728V6.16ZM22.1745 34V9.472H26.7345L27.9345 12.064C29.2145 10.336 30.8305 9.472 32.7825 9.472H34.6545V15.904H28.5585V34H22.1745ZM48.0383 22.912H42.9023C42.2303 23.744 41.8943 24.784 41.8943 26.032C41.8943 27.28 42.2463 28.256 42.9503 28.96H48.0383V22.912ZM37.7183 9.472H49.6223C51.5423 10.624 52.8063 11.952 53.4143 13.456C54.0223 14.928 54.3263 16.944 54.3263 19.504V26.704C54.3263 29.36 54.3903 31.792 54.5183 34H49.0463L48.1823 32.272C46.9343 33.424 45.1743 34 42.9023 34H39.8783C37.1583 32.208 35.7983 29.632 35.7983 26.272C35.7983 22.88 37.1903 20.208 39.9743 18.256H44.4863C45.7343 18.256 46.9023 18.64 47.9903 19.408V17.008C47.9903 15.76 47.4463 14.928 46.3583 14.512H37.7183V9.472ZM58.4546 34V0.399998H64.8386V18.208H65.5106L70.0226 9.472H76.2626L70.5986 20.176L76.3106 34H69.9746L65.5586 23.248H64.8386V34H58.4546ZM78.9401 34V9.472H83.5001L84.7001 12.064C85.9801 10.336 87.5961 9.472 89.5481 9.472H91.4201V15.904H85.3241V34H78.9401Z" fill="black"/>
</svg>
